<?xml version="1.0" standalone="no"?>
<!DOCTYPE svg PUBLIC "-//W3C//DTD SVG 20010904//EN"
 "http://www.w3.org/TR/2001/REC-SVG-20010904/DTD/svg10.dtd">
<svg version="1.0" xmlns="http://www.w3.org/2000/svg"
 width="30.000000pt" height="30.000000pt" viewBox="0 0 30.000000 30.000000"
 preserveAspectRatio="xMidYMid meet">

<g transform="translate(0.000000,30.000000) scale(0.100000,-0.100000)"
fill="#000000" stroke="none">
<path d="M44 247 c-2 -7 -3 -56 -2 -108 l3 -94 105 0 105 0 0 105 0 105 -103
3 c-79 2 -104 0 -108 -11z m196 -27 c0 -19 -7 -20 -90 -20 -83 0 -90 1 -90 20
0 19 7 20 90 20 83 0 90 -1 90 -20z m-110 -100 c0 -16 -4 -32 -10 -35 -6 -4
-10 7 -10 25 0 18 -4 29 -10 25 -5 -3 -10 -2 -10 4 0 11 21 20 33 14 4 -2 7
-17 7 -33z m65 32 c17 -12 16 -59 -1 -66 -17 -7 -34 0 -34 14 0 5 6 7 13 4 8
-3 13 3 13 16 0 13 -5 19 -13 16 -14 -6 -18 6 -6 17 8 9 15 9 28 -1z"/>
</g>
</svg>
