<?xml version="1.0" standalone="no"?>
<!DOCTYPE svg PUBLIC "-//W3C//DTD SVG 20010904//EN"
 "http://www.w3.org/TR/2001/REC-SVG-20010904/DTD/svg10.dtd">
<svg version="1.0" xmlns="http://www.w3.org/2000/svg"
 width="50.000000pt" height="50.000000pt" viewBox="0 0 50.000000 50.000000"
 preserveAspectRatio="xMidYMid meet">

<g transform="translate(0.000000,50.000000) scale(0.100000,-0.100000)"
fill="#000000" stroke="none">
<path d="M0 480 c0 -18 7 -20 66 -20 57 0 65 -2 62 -17 -3 -15 -16 -19 -66
-21 -45 -2 -62 -7 -62 -17 0 -11 20 -15 88 -17 l87 -3 3 -73 c2 -46 -2 -79 -9
-88 -8 -10 -35 -14 -90 -14 l-79 0 0 -85 0 -85 59 0 c50 0 59 -3 64 -20 4 -15
14 -20 40 -20 60 0 62 8 62 252 0 263 8 248 -132 248 -86 0 -93 -1 -93 -20z
m171 -336 c9 -11 10 -20 2 -32 -13 -22 -43 -22 -56 -1 -24 38 25 68 54 33z"/>
<path d="M372 388 c-28 -28 -1 -75 37 -63 11 3 23 15 26 26 12 38 -35 65 -63
37z"/>
<path d="M317 289 c-45 -24 -78 -82 -58 -102 10 -10 15 -8 25 7 21 35 44 61
49 56 3 -3 0 -27 -6 -53 -10 -47 -10 -49 18 -71 18 -14 35 -43 45 -72 9 -30
21 -49 30 -49 22 0 15 60 -15 120 -24 48 -25 52 -10 104 21 82 -2 100 -78 60z"/>
<path d="M420 240 c0 -21 53 -55 70 -45 18 11 11 23 -26 44 -43 26 -44 26 -44
1z"/>
<path d="M310 104 c0 -10 -12 -30 -26 -45 -16 -17 -24 -34 -21 -43 10 -25 23
-19 58 25 25 31 30 45 23 57 -15 23 -34 26 -34 6z"/>
</g>
</svg>
